HIERARCHY
ROOT joint_Root
{
	OFFSET 0.0 0.0 0.0
	CHANNELS 6 Xposition Yposition Zposition Zrotation Xrotation Yrotation 
	JOINT Hips
	{
		OFFSET 4.5925 91.4895 -427.239
		CHANNELS 6 Xposition Yposition Zposition Zrotation Xrotation Yrotation 
		JOINT Spine
		{
			OFFSET 15.7357 0.0 0.0
			CHANNELS 6 Xposition Yposition Zposition Zrotation Xrotation Yrotation 
			JOINT Chest
			{
				OFFSET 8.98455 -0.406207 0.0
				CHANNELS 6 Xposition Yposition Zposition Zrotation Xrotation Yrotation 
				JOINT Neck
				{
					OFFSET 16.3773 0.0 0.0
					CHANNELS 6 Xposition Yposition Zposition Zrotation Xrotation Yrotation 
					JOINT Head
					{
						OFFSET 6.45672 0.0 0.0
						CHANNELS 6 Xposition Yposition Zposition Zrotation Xrotation Yrotation 
						End Site
						{
							OFFSET 0.0 0.0 0.0
						}
					}
				}
				JOINT Shoulder_L
				{
					OFFSET 12.9942 -0.242716 4.98039
					CHANNELS 6 Xposition Yposition Zposition Zrotation Xrotation Yrotation 
					JOINT UpperArm_L
					{
						OFFSET 5.34809 0.0 0.0
						CHANNELS 6 Xposition Yposition Zposition Zrotation Xrotation Yrotation 
						JOINT LowerArm_L
						{
							OFFSET 24.3286 1.87007e-05 0.0
							CHANNELS 6 Xposition Yposition Zposition Zrotation Xrotation Yrotation 
							JOINT Hand_L
							{
								OFFSET 22.2916 0.0 0.0
								CHANNELS 6 Xposition Yposition Zposition Zrotation Xrotation Yrotation 
								End Site
								{
									OFFSET 0.0 0.0 0.0
								}
							}
						}
					}
				}
				JOINT Shoulder_R
				{
					OFFSET 12.9945 -0.242716 -4.98039
					CHANNELS 6 Xposition Yposition Zposition Zrotation Xrotation Yrotation 
					JOINT UpperArm_R
					{
						OFFSET -5.34813 0.0 0.0
						CHANNELS 6 Xposition Yposition Zposition Zrotation Xrotation Yrotation 
						JOINT LowerArm_R
						{
							OFFSET -24.3289 0.000322201 0.0
							CHANNELS 6 Xposition Yposition Zposition Zrotation Xrotation Yrotation 
							JOINT Hand_R
							{
								OFFSET -22.2915 -0.000108084 0.0
								CHANNELS 6 Xposition Yposition Zposition Zrotation Xrotation Yrotation 
								End Site
								{
									OFFSET 0.0 0.0 0.0
								}
							}
						}
					}
				}
			}
		}
		JOINT UpperLeg_L
		{
			OFFSET -2.19248 -6.46944 0.0
			CHANNELS 6 Xposition Yposition Zposition Zrotation Xrotation Yrotation 
			JOINT LowerLeg_L
			{
				OFFSET 39.0811 0.0 -1.23785e-05
				CHANNELS 6 Xposition Yposition Zposition Zrotation Xrotation Yrotation 
				JOINT Foot_L
				{
					OFFSET 40.9854 0.0 -1.26872e-05
					CHANNELS 6 Xposition Yposition Zposition Zrotation Xrotation Yrotation 
					JOINT Toes_L
					{
						OFFSET 11.7543 0.0 0.0
						CHANNELS 6 Xposition Yposition Zposition Zrotation Xrotation Yrotation 
						End Site
						{
							OFFSET 0.0 0.0 0.0
						}
					}
				}
			}
		}
		JOINT UpperLeg_R
		{
			OFFSET -2.19251 6.46944 0.0
			CHANNELS 6 Xposition Yposition Zposition Zrotation Xrotation Yrotation 
			JOINT LowerLeg_R
			{
				OFFSET -39.0811 -0.00228153 -0.0401928
				CHANNELS 6 Xposition Yposition Zposition Zrotation Xrotation Yrotation 
				JOINT Foot_R
				{
					OFFSET -40.9854 0.0 0.0
					CHANNELS 6 Xposition Yposition Zposition Zrotation Xrotation Yrotation 
					JOINT Toes_R
					{
						OFFSET -11.7543 0.0 0.0
						CHANNELS 6 Xposition Yposition Zposition Zrotation Xrotation Yrotation 
						End Site
						{
							OFFSET 0.0 0.0 0.0
						}
					}
				}
			}
		}
	}
}
MOTION
Frames:	6
Frame Time:	0.0333333
0.000000 0.000000 0.000000 0.000000 0.000000 -0.000000 0.146157 90.309300 4.740490 89.811400 -4.191330 7.864150 15.735700 0.000005 -0.000001 86.816600 83.506500 -87.389200 8.984550 -0.406207 -0.000000 5.198030 -0.706834 -1.111740 16.377300 -0.000001 -0.000001 3.853120 -3.952630 1.585810 6.456720 -0.000001 -0.000000 -10.022700 -2.501960 -2.679870 12.994200 -0.242716 4.980390 -92.021000 7.021200 -73.897800 5.348090 -0.000007 -0.000001 -59.218000 39.772300 -15.541600 24.328600 0.000019 0.000005 7.121820 22.999700 -17.732700 22.291600 -0.000001 0.000005 9.421370 5.321470 -0.538143 12.994500 -0.242716 -4.980390 88.482700 11.170100 -82.214200 -5.348130 -0.000001 -0.000004 -64.575300 30.084100 -9.590510 -24.328900 0.000322 -0.000009 2.135110 5.951530 -19.785500 -22.291500 -0.000108 -0.000004 11.781900 5.415380 -3.444030 -2.192480 -6.469440 -0.000000 -175.125000 -13.924400 1.879830 39.081100 -0.000007 -0.000012 -0.191709 0.330096 30.146900 40.985400 -0.000006 -0.000013 0.391291 5.007540 -73.819500 11.754300 -0.000000 0.000003 -0.000125 -0.001243 -16.625000 -2.192510 6.469440 -0.000001 172.584000 20.672700 -176.665000 -39.081100 -0.002282 -0.040193 -0.102536 0.185728 29.677200 -40.985400 0.000008 0.000006 4.692510 12.984500 -74.830700 -11.754300 -0.000006 -0.000006 -0.001279 -0.019289 -17.357500
0.000000 0.000000 0.000000 0.000000 0.000000 -0.000000 0.204871 90.315500 4.664060 89.780300 -4.262680 7.981620 15.735700 0.000005 -0.000001 87.128200 83.440800 -87.714400 8.984550 -0.406207 -0.000000 5.333210 -0.643348 -1.141060 16.377300 -0.000001 -0.000001 4.056650 -4.020060 1.491960 6.456720 -0.000001 -0.000000 -9.559920 -2.676920 -3.017980 12.994200 -0.242716 4.980390 -92.036500 7.034350 -73.809000 5.348090 -0.000007 -0.000001 -59.357900 39.553700 -15.210400 24.328600 0.000019 0.000005 7.112670 23.017100 -17.699300 22.291600 -0.000001 0.000005 9.405190 5.323380 -0.593275 12.994500 -0.242716 -4.980390 88.442100 11.204800 -82.032500 -5.348130 -0.000001 -0.000004 -64.380500 28.778400 -9.576380 -24.328900 0.000322 -0.000009 2.195740 5.816860 -20.731700 -22.291500 -0.000108 -0.000004 11.932300 5.413000 -3.364760 -2.192480 -6.469440 -0.000000 -175.104000 -13.972600 1.943400 39.081100 -0.000007 -0.000012 -0.191355 0.329016 30.182400 40.985400 -0.000006 -0.000013 0.430502 4.984740 -73.801800 11.754300 -0.000000 0.000003 -0.000142 -0.001382 -16.630200 -2.192510 6.469440 -0.000001 172.564000 20.671400 -176.614000 -39.081100 -0.002282 -0.040193 -0.095207 0.172623 29.711900 -40.985400 0.000008 0.000006 4.854940 12.984700 -74.831900 -11.754300 -0.000006 -0.000006 -0.001338 -0.020098 -17.390400
0.000000 0.000000 0.000000 0.000000 0.000000 -0.000000 0.258459 90.310500 4.589270 89.766700 -4.277560 8.078850 15.735700 0.000005 -0.000001 87.077000 83.379400 -87.687700 8.984550 -0.406207 -0.000000 5.454990 -0.661350 -1.188440 16.377300 -0.000001 -0.000001 4.351610 -4.096270 1.440960 6.456720 -0.000001 -0.000000 -9.128110 -2.745640 -3.324350 12.994200 -0.242716 4.980390 -92.045400 7.019370 -73.709400 5.348090 -0.000007 -0.000001 -59.556600 39.435800 -14.939700 24.328600 0.000019 0.000005 7.122360 22.924500 -17.785600 22.291600 -0.000001 0.000005 9.346240 5.327360 -0.708728 12.994500 -0.242716 -4.980390 88.400400 11.260100 -81.860900 -5.348130 -0.000001 -0.000004 -64.051400 26.898800 -9.704940 -24.328900 0.000322 -0.000009 2.157910 5.326430 -22.104000 -22.291500 -0.000108 -0.000004 12.021200 5.418080 -3.533960 -2.192480 -6.469440 -0.000000 -175.118000 -13.962300 1.931640 39.081100 -0.000007 -0.000012 -0.191077 0.327195 30.284600 40.985400 -0.000006 -0.000013 0.467086 4.945250 -73.802700 11.754300 -0.000000 0.000003 -0.000134 -0.001323 -16.628000 -2.192510 6.469440 -0.000001 172.503000 20.647600 -176.607000 -39.081100 -0.002282 -0.040193 -0.104308 0.188157 29.766000 -40.985400 0.000008 0.000006 4.625630 13.091300 -74.730500 -11.754300 -0.000006 -0.000006 -0.001235 -0.018694 -17.333300
0.000000 0.000000 0.000000 0.000000 0.000000 -0.000000 0.312525 90.311400 4.517500 89.756900 -4.312130 8.234300 15.735700 0.000005 -0.000001 87.068500 83.327300 -87.700400 8.984550 -0.406207 -0.000000 5.558820 -0.668737 -1.229930 16.377300 -0.000001 -0.000001 4.752680 -4.092500 1.347530 6.456720 -0.000001 -0.000000 -8.568350 -2.799240 -3.608480 12.994200 -0.242716 4.980390 -92.070200 7.056590 -73.604400 5.348090 -0.000007 -0.000001 -59.732500 39.563500 -14.664500 24.328600 0.000019 0.000005 7.198050 22.758100 -18.080600 22.291600 -0.000001 0.000005 9.256380 5.326210 -0.675288 12.994500 -0.242716 -4.980390 88.358000 11.297300 -81.675100 -5.348130 -0.000001 -0.000004 -63.506400 24.885400 -10.033000 -24.328900 0.000322 -0.000009 2.021260 4.562130 -23.939700 -22.291500 -0.000108 -0.000004 12.384900 5.421640 -3.653640 -2.192480 -6.469440 -0.000000 -175.112000 -13.992800 2.022950 39.081100 -0.000007 -0.000012 -0.186465 0.318661 30.334500 40.985400 -0.000006 -0.000013 0.519748 4.956880 -73.793000 11.754300 -0.000000 0.000003 -0.000140 -0.001369 -16.629700 -2.192510 6.469440 -0.000001 172.446000 20.598600 -176.523000 -39.081100 -0.002282 -0.040193 -0.105049 0.189111 29.810600 -40.985400 0.000008 0.000006 4.621400 13.087700 -74.696000 -11.754300 -0.000006 -0.000006 -0.001234 -0.018680 -17.332700
0.000000 0.000000 0.000000 0.000000 0.000000 -0.000000 0.375024 90.317100 4.457300 89.717400 -4.349470 8.307790 15.735700 0.000005 -0.000001 86.971500 83.318800 -87.607800 8.984550 -0.406207 -0.000000 5.574490 -0.692127 -1.237390 16.377300 -0.000001 -0.000001 5.271280 -4.073850 1.282330 6.456720 -0.000001 -0.000000 -7.954480 -2.770920 -3.995810 12.994200 -0.242716 4.980390 -92.086000 7.082900 -73.543100 5.348090 -0.000007 -0.000001 -60.017000 39.741500 -14.399000 24.328600 0.000019 0.000005 7.254490 22.575900 -18.344400 22.291600 -0.000001 0.000005 9.190890 5.327530 -0.713560 12.994500 -0.242716 -4.980390 88.315200 11.318500 -81.476700 -5.348130 -0.000001 -0.000004 -62.611400 23.078300 -10.578100 -24.328900 0.000322 -0.000009 2.001400 4.027310 -26.470400 -22.291500 -0.000108 -0.000004 12.887400 5.425620 -3.788750 -2.192480 -6.469440 -0.000000 -175.106000 -14.009800 2.039210 39.081100 -0.000007 -0.000012 -0.187777 0.320387 30.374600 40.985400 -0.000006 -0.000013 0.560020 4.914920 -73.781100 11.754300 -0.000000 0.000003 -0.000123 -0.001227 -16.624400 -2.192510 6.469440 -0.000001 172.462000 20.560700 -176.514000 -39.081100 -0.002282 -0.040193 -0.095321 0.171984 29.832000 -40.985400 0.000008 0.000006 4.721590 13.041300 -74.677000 -11.754300 -0.000006 -0.000006 -0.001230 -0.018629 -17.330700
0.000000 0.000000 0.000000 0.000000 0.000000 -0.000000 0.445358 90.320800 4.376730 89.705700 -4.425420 8.373810 15.735700 0.000005 -0.000001 86.912900 83.337700 -87.560700 8.984550 -0.406207 -0.000000 5.535830 -0.703290 -1.260100 16.377300 -0.000001 -0.000001 5.840700 -4.042340 1.218690 6.456720 -0.000001 -0.000000 -7.164310 -2.713960 -4.483240 12.994200 -0.242716 4.980390 -92.117400 7.156600 -73.470700 5.348090 -0.000007 -0.000001 -60.243400 40.008500 -14.263300 24.328600 0.000019 0.000005 7.271230 22.392900 -18.517100 22.291600 -0.000001 0.000005 9.089740 5.329790 -0.779255 12.994500 -0.242716 -4.980390 88.271900 11.290800 -81.240000 -5.348130 -0.000001 -0.000004 -61.504700 21.316400 -11.400500 -24.328900 0.000322 -0.000009 1.674470 2.974480 -29.417200 -22.291500 -0.000108 -0.000004 13.366000 5.428920 -3.901610 -2.192480 -6.469440 -0.000000 -175.143000 -14.007800 2.025140 39.081100 -0.000007 -0.000012 -0.186266 0.317184 30.423900 40.985400 -0.000006 -0.000013 0.595234 4.843030 -73.760200 11.754300 -0.000000 0.000003 -0.000129 -0.001279 -16.626400 -2.192510 6.469440 -0.000001 172.418000 20.535500 -176.545000 -39.081100 -0.002282 -0.040193 -0.099462 0.178934 29.869300 -40.985400 0.000008 0.000006 4.619530 13.147200 -74.590300 -11.754300 -0.000006 -0.000006 -0.001222 -0.018513 -17.326000
